<?xml version="1.0" encoding="UTF-8" standalone="no"?>
<!-- Created with Inkscape (http://www.inkscape.org/) -->

<svg
   xmlns:dc="http://purl.org/dc/elements/1.1/"
   xmlns:cc="http://creativecommons.org/ns#"
   xmlns:rdf="http://www.w3.org/1999/02/22-rdf-syntax-ns#"
   xmlns:svg="http://www.w3.org/2000/svg"
   xmlns="http://www.w3.org/2000/svg"
   xmlns:xlink="http://www.w3.org/1999/xlink"
   xmlns:sodipodi="http://sodipodi.sourceforge.net/DTD/sodipodi-0.dtd"
   xmlns:inkscape="http://www.inkscape.org/namespaces/inkscape"
   width="100"
   height="100"
   viewBox="0 0 26.458333 26.458334"
   version="1.1"
   id="svg8"
   inkscape:version="0.92.3 (2405546, 2018-03-11)"
   sodipodi:docname="icon_users.svg">
  <sodipodi:namedview
     id="base"
     pagecolor="#ffffff"
     bordercolor="#666666"
     borderopacity="1.0"
     inkscape:pageopacity="0.0"
     inkscape:pageshadow="2"
     inkscape:zoom="5.7275649"
     inkscape:cx="75.889837"
     inkscape:cy="43.576652"
     inkscape:document-units="mm"
     inkscape:current-layer="layer1"
     showgrid="false"
     units="px"
     inkscape:window-width="1871"
     inkscape:window-height="1025"
     inkscape:window-x="49"
     inkscape:window-y="27"
     inkscape:window-maximized="1" />
  <defs
     id="defs2">
    <linearGradient
       id="linearGradient4636"
       inkscape:collect="always">
      <stop
         id="stop4626"
         offset="0"
         style="stop-color:#0000a7;stop-opacity:1" />
      <stop
         style="stop-color:#0808ff;stop-opacity:1"
         offset="0.4283523"
         id="stop4628" />
      <stop
         style="stop-color:#1111d1;stop-opacity:1;"
         offset="0.50284582"
         id="stop4630" />
      <stop
         id="stop4632"
         offset="0.87544554"
         style="stop-color:#d6d8d9;stop-opacity:1" />
      <stop
         style="stop-color:#7e7f7f;stop-opacity:1;"
         offset="0.92633194"
         id="stop4640" />
      <stop
         style="stop-color:#525468;stop-opacity:1"
         offset="0.97560477"
         id="stop4638" />
      <stop
         id="stop4634"
         offset="1"
         style="stop-color:#f5f9f8;stop-opacity:1" />
    </linearGradient>
    <linearGradient
       inkscape:collect="always"
       id="linearGradient4524">
      <stop
         style="stop-color:#0000a7;stop-opacity:1"
         offset="0"
         id="stop4520" />
      <stop
         id="stop4534"
         offset="0.41033989"
         style="stop-color:#282bf2;stop-opacity:1" />
      <stop
         id="stop4530"
         offset="0.50284582"
         style="stop-color:#6d70df;stop-opacity:1" />
      <stop
         style="stop-color:#5e73ff;stop-opacity:1"
         offset="0.5457055"
         id="stop4532" />
      <stop
         style="stop-color:#e2e1f5;stop-opacity:1"
         offset="1"
         id="stop4522" />
    </linearGradient>
    <linearGradient
       inkscape:collect="always"
       xlink:href="#linearGradient4524"
       id="linearGradient4528"
       gradientUnits="userSpaceOnUse"
       x1="0.11742972"
       y1="270.7182"
       x2="26.438898"
       y2="297.01321" />
    <radialGradient
       inkscape:collect="always"
       xlink:href="#linearGradient4636"
       id="radialGradient4624"
       cx="13.294467"
       cy="283.77072"
       fx="13.294467"
       fy="283.77072"
       r="13.258659"
       gradientTransform="matrix(1.0000001,0,0,0.99777845,-0.04896952,0.67640233)"
       gradientUnits="userSpaceOnUse" />
  </defs>
  <metadata
     id="metadata5">
    <rdf:RDF>
      <cc:Work
         rdf:about="">
        <dc:format>image/svg+xml</dc:format>
        <dc:type
           rdf:resource="http://purl.org/dc/dcmitype/StillImage" />
        <dc:title></dc:title>
      </cc:Work>
    </rdf:RDF>
  </metadata>
  <g
     inkscape:label="Vrstva 1"
     inkscape:groupmode="layer"
     id="layer1"
     transform="translate(0,-270.54165)">
    <ellipse
       style="opacity:1;fill:url(#linearGradient4528);fill-opacity:1;stroke:#000000;stroke-width:0.02642882;stroke-miterlimit:4;stroke-dasharray:none;stroke-opacity:0.27692309"
       id="path4518"
       cx="13.245499"
       cy="283.81671"
       rx="13.245513"
       ry="13.215952" />
    <path
       style="fill:#f8ffff;fill-opacity:0.48816568;stroke-width:0.99999994"
       d="M 37.625 11.130859 A 18.419695 18.419695 0 0 0 19.205078 29.550781 A 18.419695 18.419695 0 0 0 32.125 47.125 L 32.125 54.298828 L 24.791016 54.298828 L 24.791016 54.306641 A 7.5948506 7.5948506 0 0 0 24.617188 54.298828 A 7.5948506 7.5948506 0 0 0 17.195312 60.298828 L 17.109375 60.298828 L 17.109375 60.810547 A 7.5948506 7.5948506 0 0 0 17.021484 61.896484 A 7.5948506 7.5948506 0 0 0 17.109375 62.992188 L 17.109375 87.433594 A 50.02126 50.02126 0 0 0 50.195312 100 A 50.02126 50.02126 0 0 0 65.123047 97.664062 L 65.123047 63.496094 A 7.5948506 7.5948506 0 0 0 65.296875 61.896484 A 7.5948506 7.5948506 0 0 0 65.123047 60.314453 L 65.123047 60.300781 L 65.119141 60.300781 A 7.5948506 7.5948506 0 0 0 57.791016 54.304688 L 57.791016 54.300781 L 47.488281 54.300781 L 47.488281 45.103516 A 18.419695 18.419695 0 0 0 56.044922 29.552734 A 18.419695 18.419695 0 0 0 37.625 11.132812 L 37.625 11.130859 z "
       transform="matrix(0.26458333,0,0,0.26458333,0,270.54165)"
       id="path25" />
    <path
       style="opacity:1;fill:url(#radialGradient4624);fill-opacity:1;stroke:#000000;stroke-width:0.02642882;stroke-miterlimit:4;stroke-dasharray:none;stroke-opacity:0.27692309"
       d="M 13.245756,270.60072 A 13.245513,13.215952 0 0 0 5.3882227e-5,283.81697 13.245513,13.215952 0 0 0 13.245756,297.0327 13.245513,13.215952 0 0 0 26.490943,283.81697 13.245513,13.215952 0 0 0 13.245756,270.60072 Z m 0,1.44901 A 11.793386,11.767066 0 0 1 25.038835,283.81697 11.793386,11.767066 0 0 1 13.245756,295.58369 11.793386,11.767066 0 0 1 1.4521616,283.81697 11.793386,11.767066 0 0 1 13.245756,272.04973 Z"
       id="path4518-0"
       inkscape:connector-curvature="0" />
  </g>
</svg>
